<svg width="33" height="246" viewBox="0 0 33 246" fill="none" xmlns="http://www.w3.org/2000/svg">
<path d="M26 245.099C26 245.363 25.928 245.567 25.784 245.711C25.616 245.855 25.412 245.927 25.172 245.927L1.66399 245.927C1.39999 245.927 1.19599 245.855 1.05199 245.711C0.883989 245.567 0.799988 245.363 0.799988 245.099L0.799988 235.235C0.799988 233.435 1.09999 231.971 1.69999 230.843C2.27599 229.691 3.06799 228.851 4.07599 228.323C5.08399 227.771 6.21199 227.495 7.45999 227.495C8.44399 227.495 9.29599 227.663 10.016 227.999C10.712 228.311 11.288 228.707 11.744 229.187C12.176 229.667 12.512 230.135 12.752 230.591C13.208 229.655 13.952 228.827 14.984 228.107C16.016 227.363 17.264 226.991 18.728 226.991C20.048 226.991 21.26 227.291 22.364 227.891C23.468 228.491 24.356 229.391 25.028 230.591C25.676 231.767 26 233.231 26 234.983L26 245.099ZM23.084 242.399L23.084 235.451C23.084 233.891 22.664 232.691 21.824 231.851C20.984 231.011 19.952 230.591 18.728 230.591C17.456 230.591 16.412 231.011 15.596 231.851C14.756 232.691 14.336 233.891 14.336 235.451L14.336 242.399L23.084 242.399ZM11.456 242.399L11.456 235.775C11.456 234.239 11.108 233.075 10.412 232.283C9.69199 231.491 8.71999 231.095 7.49599 231.095C6.27199 231.095 5.33599 231.491 4.68799 232.283C4.03999 233.075 3.71599 234.239 3.71599 235.775L3.71599 242.399L11.456 242.399ZM26.36 217.128C26.36 218.328 26.12 219.42 25.64 220.404C25.16 221.388 24.512 222.18 23.696 222.78C22.88 223.38 21.956 223.68 20.924 223.68C19.268 223.68 17.948 223.008 16.964 221.664C15.98 220.32 15.332 218.568 15.02 216.408L14.264 211.044L13.22 211.044C12.068 211.044 11.168 211.38 10.52 212.052C9.87199 212.7 9.54799 213.768 9.54799 215.256C9.54799 216.336 9.76399 217.212 10.196 217.884C10.628 218.532 11.18 218.988 11.852 219.252C12.212 219.396 12.392 219.648 12.392 220.008L12.392 221.628C12.392 221.892 12.32 222.096 12.176 222.24C12.008 222.36 11.816 222.42 11.6 222.42C11.24 222.42 10.796 222.288 10.268 222.024C9.73999 221.736 9.22399 221.304 8.71999 220.728C8.21599 220.152 7.79599 219.42 7.45999 218.532C7.09999 217.62 6.91999 216.516 6.91999 215.22C6.91999 213.78 7.11199 212.568 7.49599 211.584C7.85599 210.6 8.34799 209.832 8.97199 209.28C9.59599 208.704 10.304 208.296 11.096 208.056C11.888 207.792 12.692 207.66 13.508 207.66L25.172 207.66C25.412 207.66 25.616 207.744 25.784 207.912C25.928 208.056 26 208.248 26 208.488L26 210.144C26 210.408 25.928 210.612 25.784 210.756C25.616 210.9 25.412 210.972 25.172 210.972L23.624 210.972C24.056 211.284 24.488 211.704 24.92 212.232C25.328 212.76 25.676 213.42 25.964 214.212C26.228 215.004 26.36 215.976 26.36 217.128ZM23.66 216.372C23.66 215.388 23.456 214.488 23.048 213.672C22.616 212.856 21.956 212.22 21.068 211.764C20.18 211.284 19.064 211.044 17.72 211.044L16.712 211.044L17.324 215.22C17.564 216.924 17.972 218.208 18.548 219.072C19.1 219.936 19.808 220.368 20.672 220.368C21.344 220.368 21.908 220.176 22.364 219.792C22.796 219.384 23.12 218.88 23.336 218.28C23.552 217.656 23.66 217.02 23.66 216.372ZM26.36 194.924C26.36 196.628 26.036 198.104 25.388 199.352C24.716 200.576 23.768 201.524 22.544 202.196C21.296 202.868 19.808 203.228 18.08 203.276C17.72 203.3 17.24 203.312 16.64 203.312C16.04 203.312 15.56 203.3 15.2 203.276C13.472 203.228 11.996 202.868 10.772 202.196C9.52399 201.524 8.57599 200.576 7.92799 199.352C7.25599 198.104 6.91999 196.628 6.91999 194.924C6.91999 193.532 7.11199 192.344 7.49599 191.36C7.87999 190.352 8.37199 189.524 8.97199 188.876C9.57199 188.228 10.22 187.748 10.916 187.436C11.612 187.1 12.272 186.92 12.896 186.896C13.136 186.872 13.328 186.944 13.472 187.112C13.616 187.28 13.688 187.484 13.688 187.724L13.688 189.452C13.688 189.692 13.64 189.872 13.544 189.992C13.424 190.112 13.232 190.232 12.968 190.352C11.792 190.784 10.964 191.372 10.484 192.116C10.004 192.86 9.76399 193.784 9.76399 194.888C9.76399 196.328 10.208 197.504 11.096 198.416C11.984 199.304 13.412 199.784 15.38 199.856C16.244 199.88 17.084 199.88 17.9 199.856C19.892 199.784 21.332 199.304 22.22 198.416C23.084 197.504 23.516 196.328 23.516 194.888C23.516 193.784 23.276 192.86 22.796 192.116C22.316 191.372 21.488 190.784 20.312 190.352C20.048 190.232 19.868 190.112 19.772 189.992C19.652 189.872 19.592 189.692 19.592 189.452L19.592 187.724C19.592 187.484 19.664 187.28 19.808 187.112C19.952 186.944 20.144 186.872 20.384 186.896C20.888 186.92 21.404 187.028 21.932 187.22C22.46 187.412 23 187.724 23.552 188.156C24.08 188.564 24.56 189.08 24.992 189.704C25.4 190.328 25.736 191.084 26 191.972C26.24 192.836 26.36 193.82 26.36 194.924ZM26 181.757C26 181.997 25.928 182.201 25.784 182.369C25.616 182.513 25.412 182.585 25.172 182.585L1.26799 182.585C1.02799 182.585 0.835987 182.513 0.691987 182.369C0.523986 182.201 0.439986 181.997 0.439986 181.757L0.439986 180.065C0.439986 179.825 0.523986 179.633 0.691987 179.489C0.835986 179.321 1.02799 179.237 1.26799 179.237L13.796 179.237L7.89199 172.145C7.65199 171.857 7.49599 171.641 7.42399 171.497C7.32799 171.329 7.27999 171.065 7.27999 170.705L7.27999 168.797C7.27999 168.581 7.35199 168.401 7.49599 168.257C7.63999 168.113 7.81999 168.041 8.03599 168.041C8.13199 168.041 8.23999 168.077 8.35999 168.149C8.47999 168.197 8.59999 168.305 8.71999 168.473L15.632 176.789L24.596 167.573C24.836 167.285 25.052 167.141 25.244 167.141C25.46 167.141 25.64 167.213 25.784 167.357C25.928 167.501 26 167.681 26 167.897L26 169.769C26 170.129 25.964 170.393 25.892 170.561C25.796 170.729 25.628 170.945 25.388 171.209L17.72 179.237L25.172 179.237C25.412 179.237 25.616 179.321 25.784 179.489C25.928 179.633 26 179.825 26 180.065L26 181.757ZM26 149.051C26 150.395 25.748 151.487 25.244 152.327C24.716 153.167 23.984 153.779 23.048 154.163C22.088 154.547 20.96 154.739 19.664 154.739L10.16 154.739L10.16 157.547C10.16 157.787 10.088 157.991 9.94399 158.159C9.77599 158.303 9.57199 158.375 9.33199 158.375L8.10799 158.375C7.86799 158.375 7.67599 158.303 7.53199 158.159C7.36399 157.991 7.27998 157.787 7.27998 157.547L7.27998 154.739L1.26798 154.739C1.02798 154.739 0.835985 154.667 0.691986 154.523C0.523985 154.355 0.439985 154.151 0.439985 153.911L0.439985 152.219C0.439985 151.979 0.523985 151.787 0.691986 151.643C0.835985 151.475 1.02798 151.391 1.26798 151.391L7.27998 151.391L7.27998 146.927C7.27998 146.687 7.36398 146.495 7.53199 146.351C7.67598 146.183 7.86798 146.099 8.10799 146.099L9.33198 146.099C9.57199 146.099 9.77599 146.183 9.94399 146.351C10.088 146.495 10.16 146.687 10.16 146.927L10.16 151.391L19.412 151.391C20.54 151.391 21.428 151.199 22.076 150.815C22.724 150.431 23.048 149.747 23.048 148.763L23.048 146.567C23.048 146.327 23.132 146.135 23.3 145.991C23.444 145.823 23.636 145.739 23.876 145.739L25.172 145.739C25.412 145.739 25.616 145.823 25.784 145.991C25.928 146.135 26 146.327 26 146.567L26 149.051ZM26.36 134.629C26.36 136.453 26.012 137.977 25.316 139.201C24.62 140.425 23.66 141.361 22.436 142.009C21.188 142.657 19.772 143.017 18.188 143.089C17.78 143.113 17.264 143.125 16.64 143.125C15.992 143.125 15.476 143.113 15.092 143.089C13.484 143.017 12.068 142.657 10.844 142.009C9.61998 141.337 8.65998 140.389 7.96398 139.165C7.26798 137.941 6.91998 136.429 6.91998 134.629C6.91998 132.829 7.26798 131.317 7.96398 130.093C8.65998 128.869 9.61998 127.933 10.844 127.285C12.068 126.613 13.484 126.241 15.092 126.169C15.476 126.145 15.992 126.133 16.64 126.133C17.264 126.133 17.78 126.145 18.188 126.169C19.772 126.241 21.188 126.601 22.436 127.249C23.66 127.897 24.62 128.833 25.316 130.057C26.012 131.281 26.36 132.805 26.36 134.629ZM23.588 134.629C23.588 133.141 23.12 131.953 22.184 131.065C21.224 130.177 19.832 129.697 18.008 129.625C17.648 129.601 17.192 129.589 16.64 129.589C16.088 129.589 15.632 129.601 15.272 129.625C13.448 129.697 12.068 130.177 11.132 131.065C10.172 131.953 9.69198 133.141 9.69198 134.629C9.69198 136.117 10.172 137.317 11.132 138.229C12.068 139.117 13.448 139.585 15.272 139.633C15.632 139.657 16.088 139.669 16.64 139.669C17.192 139.669 17.648 139.657 18.008 139.633C19.832 139.585 21.224 139.117 22.184 138.229C23.12 137.317 23.588 136.117 23.588 134.629ZM26.36 103.189C26.36 105.301 25.964 107.101 25.172 108.589C24.38 110.053 23.264 111.181 21.824 111.973C20.384 112.741 18.692 113.173 16.748 113.269C15.692 113.293 14.576 113.305 13.4 113.305C12.2 113.305 11.06 113.293 9.97998 113.269C8.03598 113.173 6.35598 112.741 4.93998 111.973C3.52398 111.181 2.41998 110.041 1.62798 108.553C0.835982 107.065 0.439983 105.277 0.439982 103.189C0.439982 101.485 0.679982 100.009 1.15998 98.7608C1.63998 97.5128 2.25198 96.4928 2.99598 95.7008C3.71598 94.8848 4.47198 94.2848 5.26398 93.9008C6.05598 93.4928 6.75198 93.2768 7.35198 93.2528C7.56798 93.2288 7.74798 93.2888 7.89198 93.4328C8.01198 93.5768 8.07198 93.7688 8.07198 94.0088L8.07198 96.1328C8.07198 96.3728 8.02398 96.5528 7.92798 96.6728C7.83198 96.7688 7.66398 96.8648 7.42398 96.9608C6.79998 97.1768 6.18798 97.5368 5.58798 98.0408C4.98798 98.5208 4.49598 99.1808 4.11198 100.021C3.70398 100.837 3.49998 101.893 3.49998 103.189C3.49998 105.085 4.01598 106.621 5.04798 107.797C6.07998 108.949 7.78398 109.573 10.16 109.669C12.296 109.741 14.432 109.741 16.568 109.669C18.968 109.573 20.696 108.937 21.752 107.761C22.784 106.585 23.3 105.049 23.3 103.153C23.3 101.881 23.072 100.753 22.616 99.7688C22.136 98.7608 21.404 97.9688 20.42 97.3928C19.436 96.8168 18.188 96.5288 16.676 96.5288L15.164 96.5288L15.164 101.929C15.164 102.169 15.092 102.373 14.948 102.541C14.78 102.685 14.564 102.757 14.3 102.757L13.148 102.757C12.884 102.757 12.68 102.685 12.536 102.541C12.368 102.373 12.284 102.169 12.284 101.929L12.284 93.7928C12.284 93.5288 12.368 93.3248 12.536 93.1808C12.68 93.0368 12.884 92.9648 13.148 92.9648L16.604 92.9648C18.572 92.9648 20.288 93.3728 21.752 94.1888C23.216 94.9808 24.356 96.1448 25.172 97.6808C25.964 99.2168 26.36 101.053 26.36 103.189ZM26.36 83.0769C26.36 84.2769 26.12 85.3689 25.64 86.3529C25.16 87.3369 24.512 88.1289 23.696 88.7289C22.88 89.3289 21.956 89.6289 20.924 89.6289C19.268 89.6289 17.948 88.9569 16.964 87.6129C15.98 86.2689 15.332 84.5169 15.02 82.3569L14.264 76.9929L13.22 76.9929C12.068 76.9929 11.168 77.3289 10.52 78.0009C9.87198 78.6489 9.54798 79.7169 9.54798 81.2049C9.54798 82.2849 9.76398 83.1609 10.196 83.8329C10.628 84.4809 11.18 84.9369 11.852 85.2009C12.212 85.3449 12.392 85.5969 12.392 85.9569L12.392 87.5769C12.392 87.8409 12.32 88.0449 12.176 88.1889C12.008 88.3089 11.816 88.3689 11.6 88.3689C11.24 88.3689 10.796 88.2369 10.268 87.9729C9.73998 87.6849 9.22398 87.2529 8.71998 86.6769C8.21598 86.1009 7.79598 85.3689 7.45998 84.4809C7.09998 83.5689 6.91998 82.4649 6.91998 81.1689C6.91998 79.7289 7.11198 78.5169 7.49598 77.5329C7.85598 76.5489 8.34798 75.7809 8.97198 75.2289C9.59598 74.6529 10.304 74.2449 11.096 74.0049C11.888 73.7409 12.692 73.6089 13.508 73.6089L25.172 73.6089C25.412 73.6089 25.616 73.6929 25.784 73.8609C25.928 74.0049 26 74.1969 26 74.4369L26 76.0929C26 76.3569 25.928 76.5609 25.784 76.7049C25.616 76.8489 25.412 76.9209 25.172 76.9209L23.624 76.9209C24.056 77.2329 24.488 77.6529 24.92 78.1809C25.328 78.7089 25.676 79.3689 25.964 80.1609C26.228 80.9529 26.36 81.9249 26.36 83.0769ZM23.66 82.3209C23.66 81.3369 23.456 80.4369 23.048 79.6209C22.616 78.8049 21.956 78.1689 21.068 77.7129C20.18 77.2329 19.064 76.9929 17.72 76.9929L16.712 76.9929L17.324 81.1689C17.564 82.8729 17.972 84.1569 18.548 85.0209C19.1 85.8849 19.808 86.3169 20.672 86.3169C21.344 86.3169 21.908 86.1249 22.364 85.7409C22.796 85.3329 23.12 84.8289 23.336 84.2289C23.552 83.6049 23.66 82.9689 23.66 82.3209ZM26 67.5697C26 67.8097 25.928 68.0137 25.784 68.1817C25.616 68.3257 25.412 68.3977 25.172 68.3977L1.26798 68.3977C1.02798 68.3977 0.835982 68.3257 0.691982 68.1817C0.523981 68.0137 0.439981 67.8097 0.439981 67.5697L0.439981 65.8777C0.439981 65.6137 0.523981 65.4097 0.691982 65.2657C0.835981 65.1217 1.02798 65.0497 1.26798 65.0497L25.172 65.0497C25.412 65.0497 25.616 65.1217 25.784 65.2657C25.928 65.4097 26 65.6137 26 65.8777L26 67.5697ZM26 58.8157C26 59.0557 25.928 59.2597 25.784 59.4277C25.616 59.5717 25.412 59.6437 25.172 59.6437L1.26798 59.6437C1.02798 59.6437 0.835981 59.5717 0.691982 59.4277C0.523981 59.2597 0.43998 59.0557 0.43998 58.8157L0.43998 57.1237C0.43998 56.8597 0.523981 56.6557 0.691981 56.5117C0.835981 56.3677 1.02798 56.2957 1.26798 56.2957L25.172 56.2957C25.412 56.2957 25.616 56.3677 25.784 56.5117C25.928 56.6557 26 56.8597 26 57.1237L26 58.8157ZM26.36 43.4738C26.36 45.9458 25.604 47.9138 24.092 49.3778C22.556 50.8418 20.468 51.6458 17.828 51.7898C17.516 51.8138 17.12 51.8258 16.64 51.8258C16.136 51.8258 15.728 51.8138 15.416 51.7898C13.712 51.6938 12.224 51.2978 10.952 50.6018C9.65598 49.9058 8.65998 48.9578 7.96398 47.7578C7.26798 46.5338 6.91998 45.1058 6.91998 43.4738C6.91998 41.6498 7.30398 40.1258 8.07198 38.9018C8.83998 37.6538 9.93198 36.7058 11.348 36.0578C12.764 35.4098 14.42 35.0858 16.316 35.0858L16.928 35.0858C17.192 35.0858 17.396 35.1698 17.54 35.3378C17.684 35.4818 17.756 35.6738 17.756 35.9138L17.756 48.3698C17.78 48.3698 17.828 48.3698 17.9 48.3698C17.972 48.3698 18.032 48.3698 18.08 48.3698C19.064 48.3218 19.988 48.1058 20.852 47.7218C21.692 47.3378 22.376 46.7858 22.904 46.0658C23.432 45.3458 23.696 44.4818 23.696 43.4738C23.696 42.6098 23.564 41.8898 23.3 41.3138C23.036 40.7378 22.748 40.2698 22.436 39.9098C22.1 39.5498 21.848 39.3098 21.68 39.1898C21.368 38.9738 21.188 38.8058 21.14 38.6858C21.068 38.5658 21.032 38.3738 21.032 38.1098L21.032 36.3818C21.032 36.1418 21.104 35.9498 21.248 35.8058C21.368 35.6378 21.548 35.5658 21.788 35.5898C22.148 35.6138 22.592 35.8058 23.12 36.1658C23.624 36.5258 24.128 37.0418 24.632 37.7138C25.136 38.3858 25.556 39.2018 25.892 40.1618C26.204 41.1218 26.36 42.2258 26.36 43.4738ZM15.272 48.3698L15.272 38.5058L15.164 38.5058C14.084 38.5058 13.124 38.7098 12.284 39.1178C11.444 39.5018 10.784 40.0658 10.304 40.8098C9.79998 41.5538 9.54798 42.4418 9.54798 43.4738C9.54798 44.5058 9.79998 45.3938 10.304 46.1378C10.784 46.8578 11.444 47.4098 12.284 47.7938C13.124 48.1778 14.084 48.3698 15.164 48.3698L15.272 48.3698ZM26 29.9533C26 30.1933 25.928 30.3973 25.784 30.5653C25.616 30.7093 25.412 30.7813 25.172 30.7813L8.14398 30.7813C7.90398 30.7813 7.69998 30.7093 7.53198 30.5653C7.36398 30.3973 7.27998 30.1933 7.27998 29.9533L7.27998 28.2973C7.27998 28.0573 7.36398 27.8533 7.53198 27.6853C7.69998 27.5173 7.90398 27.4333 8.14398 27.4333L9.72798 27.4333C8.91198 26.9533 8.29998 26.2933 7.89198 25.4533C7.48398 24.6133 7.27998 23.6053 7.27998 22.4293L7.27998 20.9893C7.27998 20.7493 7.36398 20.5573 7.53198 20.4133C7.67598 20.2693 7.86798 20.1973 8.10798 20.1973L9.58398 20.1973C9.82398 20.1973 10.016 20.2693 10.16 20.4133C10.304 20.5573 10.376 20.7493 10.376 20.9893L10.376 23.1493C10.376 24.4453 10.76 25.4653 11.528 26.2093C12.272 26.9533 13.292 27.3253 14.588 27.3253L25.172 27.3253C25.412 27.3253 25.616 27.4093 25.784 27.5773C25.928 27.7453 26 27.9493 26 28.1893L26 29.9533ZM32.84 13.8295C32.84 14.0215 32.768 14.1895 32.624 14.3335C32.48 14.4775 32.312 14.5495 32.12 14.5495C32.024 14.5495 31.928 14.5375 31.832 14.5135C31.736 14.4895 31.616 14.4415 31.472 14.3695L24.884 11.5975L8.64798 18.4735C8.35998 18.5935 8.15598 18.6535 8.03598 18.6535C7.81998 18.6535 7.63998 18.5815 7.49598 18.4375C7.35198 18.2935 7.27998 18.1135 7.27998 17.8975L7.27998 16.1335C7.27998 15.8935 7.33998 15.7015 7.45998 15.5575C7.57998 15.4135 7.72398 15.3175 7.89198 15.2695L20.996 9.79753L7.89198 4.18153C7.72398 4.10953 7.57998 4.01353 7.45998 3.89353C7.33998 3.74953 7.27998 3.54553 7.27998 3.28153L7.27998 1.58953C7.27998 1.37353 7.35198 1.19353 7.49598 1.04953C7.63998 0.905528 7.80798 0.833529 7.99998 0.833529C8.11998 0.833529 8.33598 0.893529 8.64798 1.01353L32.228 11.2375C32.396 11.3095 32.54 11.4175 32.66 11.5615C32.78 11.6815 32.84 11.8735 32.84 12.1375L32.84 13.8295Z" fill="#187AB9"/>
</svg>
