<svg width="90" height="90" viewBox="0 0 90 90" fill="none" xmlns="http://www.w3.org/2000/svg">
<rect x="0.5" y="0.5" width="89" height="89" rx="24.5" fill="#F8F8F8" stroke="#73B0CF"/>
<path d="M31.6349 57C31.4656 57 31.3175 56.9343 31.1905 56.8029C31.0635 56.6714 31 56.5181 31 56.3429C31 56.2333 31.0106 56.1129 31.0317 55.9814L38.9048 34.7229C38.9894 34.5038 39.1058 34.3286 39.254 34.1971C39.4021 34.0657 39.6243 34 39.9206 34H42.0794C42.3545 34 42.5661 34.0657 42.7143 34.1971C42.8836 34.3286 43.0106 34.5038 43.0952 34.7229L50.9365 55.9814C50.9788 56.1129 51 56.2333 51 56.3429C51 56.5181 50.9365 56.6714 50.8095 56.8029C50.6825 56.9343 50.5344 57 50.3651 57H48.746C48.4921 57 48.3016 56.9343 48.1746 56.8029C48.0688 56.6714 47.9947 56.551 47.9524 56.4414L46.2063 51.7757H35.7937L34.0476 56.4414C34.0265 56.551 33.9524 56.6714 33.8254 56.8029C33.6984 56.9343 33.5079 57 33.254 57H31.6349ZM36.7143 48.95H45.2857L41 37.2857L36.7143 48.95Z" fill="#187AB9"/>
<path fill-rule="evenodd" clip-rule="evenodd" d="M49.0204 34L54.2582 43.0722L59.4961 34L57.5344 34L54.2582 39.6744L50.9821 34L49.0204 34Z" fill="#187AB9"/>
</svg>
