<svg width="265" height="70" viewBox="0 0 265 70" fill="none" xmlns="http://www.w3.org/2000/svg">
<rect width="265" height="70" rx="25" fill="#D8555A"/>
<path d="M54.2627 48C53.9987 48 53.7947 47.928 53.6507 47.784C53.5067 47.616 53.4347 47.412 53.4347 47.172V23.664C53.4347 23.4 53.5067 23.196 53.6507 23.052C53.7947 22.884 53.9987 22.8 54.2627 22.8H62.4347C64.9067 22.8 66.8987 23.172 68.4107 23.916C69.9227 24.66 71.0267 25.764 71.7227 27.228C72.4187 28.668 72.7787 30.444 72.8027 32.556C72.8267 33.636 72.8387 34.584 72.8387 35.4C72.8387 36.216 72.8267 37.152 72.8027 38.208C72.7547 40.416 72.3827 42.252 71.6867 43.716C71.0147 45.156 69.9347 46.236 68.4467 46.956C66.9827 47.652 65.0387 48 62.6147 48H54.2627ZM56.9627 44.94H62.4347C64.0907 44.94 65.4107 44.712 66.3947 44.256C67.3787 43.8 68.0867 43.068 68.5187 42.06C68.9747 41.052 69.2147 39.72 69.2387 38.064C69.2867 37.344 69.3107 36.72 69.3107 36.192C69.3107 35.64 69.3107 35.1 69.3107 34.572C69.3107 34.02 69.2867 33.396 69.2387 32.7C69.1907 30.372 68.6387 28.656 67.5827 27.552C66.5267 26.424 64.7507 25.86 62.2547 25.86H56.9627V44.94ZM85.455 48.36C83.631 48.36 82.107 48.012 80.883 47.316C79.659 46.62 78.723 45.66 78.075 44.436C77.427 43.188 77.067 41.772 76.995 40.188C76.971 39.78 76.959 39.264 76.959 38.64C76.959 37.992 76.971 37.476 76.995 37.092C77.067 35.484 77.427 34.068 78.075 32.844C78.747 31.62 79.695 30.66 80.919 29.964C82.143 29.268 83.655 28.92 85.455 28.92C87.255 28.92 88.767 29.268 89.991 29.964C91.215 30.66 92.151 31.62 92.799 32.844C93.471 34.068 93.843 35.484 93.915 37.092C93.939 37.476 93.951 37.992 93.951 38.64C93.951 39.264 93.939 39.78 93.915 40.188C93.843 41.772 93.483 43.188 92.835 44.436C92.187 45.66 91.251 46.62 90.027 47.316C88.803 48.012 87.279 48.36 85.455 48.36ZM85.455 45.588C86.943 45.588 88.131 45.12 89.019 44.184C89.907 43.224 90.387 41.832 90.459 40.008C90.483 39.648 90.495 39.192 90.495 38.64C90.495 38.088 90.483 37.632 90.459 37.272C90.387 35.448 89.907 34.068 89.019 33.132C88.131 32.172 86.943 31.692 85.455 31.692C83.967 31.692 82.767 32.172 81.855 33.132C80.967 34.068 80.499 35.448 80.451 37.272C80.427 37.632 80.415 38.088 80.415 38.64C80.415 39.192 80.427 39.648 80.451 40.008C80.499 41.832 80.967 43.224 81.855 44.184C82.767 45.12 83.967 45.588 85.455 45.588ZM102.935 48C102.623 48 102.383 47.928 102.215 47.784C102.047 47.616 101.903 47.388 101.783 47.1L96.6707 30.396C96.6227 30.276 96.5987 30.156 96.5987 30.036C96.5987 29.82 96.6707 29.64 96.8147 29.496C96.9827 29.352 97.1627 29.28 97.3547 29.28H98.9387C99.2027 29.28 99.4067 29.352 99.5507 29.496C99.6947 29.64 99.7907 29.772 99.8387 29.892L103.835 43.464L108.119 30.036C108.167 29.868 108.263 29.7 108.407 29.532C108.575 29.364 108.815 29.28 109.127 29.28H110.351C110.663 29.28 110.903 29.364 111.071 29.532C111.239 29.7 111.335 29.868 111.359 30.036L115.643 43.464L119.639 29.892C119.663 29.772 119.747 29.64 119.891 29.496C120.035 29.352 120.239 29.28 120.503 29.28H122.087C122.303 29.28 122.483 29.352 122.627 29.496C122.771 29.64 122.843 29.82 122.843 30.036C122.843 30.156 122.819 30.276 122.771 30.396L117.659 47.1C117.587 47.388 117.455 47.616 117.263 47.784C117.095 47.928 116.843 48 116.507 48H115.103C114.791 48 114.527 47.928 114.311 47.784C114.119 47.616 113.987 47.388 113.915 47.1L109.739 34.212L105.563 47.1C105.467 47.388 105.323 47.616 105.131 47.784C104.939 47.928 104.675 48 104.339 48H102.935ZM127.658 48C127.418 48 127.214 47.928 127.046 47.784C126.902 47.616 126.83 47.412 126.83 47.172V30.108C126.83 29.868 126.902 29.676 127.046 29.532C127.214 29.364 127.418 29.28 127.658 29.28H129.35C129.59 29.28 129.782 29.364 129.926 29.532C130.094 29.676 130.178 29.868 130.178 30.108V31.692C130.802 30.876 131.582 30.216 132.518 29.712C133.478 29.184 134.702 28.92 136.19 28.92C137.75 28.92 139.07 29.268 140.15 29.964C141.254 30.636 142.082 31.584 142.634 32.808C143.186 34.008 143.462 35.412 143.462 37.02V47.172C143.462 47.412 143.39 47.616 143.246 47.784C143.102 47.928 142.91 48 142.67 48H140.87C140.63 48 140.426 47.928 140.258 47.784C140.114 47.616 140.042 47.412 140.042 47.172V37.2C140.042 35.52 139.634 34.212 138.818 33.276C138.002 32.316 136.802 31.836 135.218 31.836C133.73 31.836 132.53 32.316 131.618 33.276C130.73 34.212 130.286 35.52 130.286 37.2V47.172C130.286 47.412 130.202 47.616 130.034 47.784C129.89 47.928 129.698 48 129.458 48H127.658ZM149.526 48C149.286 48 149.082 47.928 148.914 47.784C148.77 47.616 148.698 47.412 148.698 47.172V23.268C148.698 23.028 148.77 22.836 148.914 22.692C149.082 22.524 149.286 22.44 149.526 22.44H151.218C151.482 22.44 151.686 22.524 151.83 22.692C151.974 22.836 152.046 23.028 152.046 23.268V47.172C152.046 47.412 151.974 47.616 151.83 47.784C151.686 47.928 151.482 48 151.218 48H149.526ZM165.084 48.36C163.26 48.36 161.736 48.012 160.512 47.316C159.288 46.62 158.352 45.66 157.704 44.436C157.056 43.188 156.696 41.772 156.624 40.188C156.6 39.78 156.588 39.264 156.588 38.64C156.588 37.992 156.6 37.476 156.624 37.092C156.696 35.484 157.056 34.068 157.704 32.844C158.376 31.62 159.324 30.66 160.548 29.964C161.772 29.268 163.284 28.92 165.084 28.92C166.884 28.92 168.396 29.268 169.62 29.964C170.844 30.66 171.78 31.62 172.428 32.844C173.1 34.068 173.472 35.484 173.544 37.092C173.568 37.476 173.58 37.992 173.58 38.64C173.58 39.264 173.568 39.78 173.544 40.188C173.472 41.772 173.112 43.188 172.464 44.436C171.816 45.66 170.88 46.62 169.656 47.316C168.432 48.012 166.908 48.36 165.084 48.36ZM165.084 45.588C166.572 45.588 167.76 45.12 168.648 44.184C169.536 43.224 170.016 41.832 170.088 40.008C170.112 39.648 170.124 39.192 170.124 38.64C170.124 38.088 170.112 37.632 170.088 37.272C170.016 35.448 169.536 34.068 168.648 33.132C167.76 32.172 166.572 31.692 165.084 31.692C163.596 31.692 162.396 32.172 161.484 33.132C160.596 34.068 160.128 35.448 160.08 37.272C160.056 37.632 160.044 38.088 160.044 38.64C160.044 39.192 160.056 39.648 160.08 40.008C160.128 41.832 160.596 43.224 161.484 44.184C162.396 45.12 163.596 45.588 165.084 45.588ZM183.308 48.36C182.108 48.36 181.016 48.12 180.032 47.64C179.048 47.16 178.256 46.512 177.656 45.696C177.056 44.88 176.756 43.956 176.756 42.924C176.756 41.268 177.428 39.948 178.772 38.964C180.116 37.98 181.868 37.332 184.028 37.02L189.392 36.264V35.22C189.392 34.068 189.056 33.168 188.384 32.52C187.736 31.872 186.668 31.548 185.18 31.548C184.1 31.548 183.224 31.764 182.552 32.196C181.904 32.628 181.448 33.18 181.184 33.852C181.04 34.212 180.788 34.392 180.428 34.392H178.808C178.544 34.392 178.34 34.32 178.196 34.176C178.076 34.008 178.016 33.816 178.016 33.6C178.016 33.24 178.148 32.796 178.412 32.268C178.7 31.74 179.132 31.224 179.708 30.72C180.284 30.216 181.016 29.796 181.904 29.46C182.816 29.1 183.92 28.92 185.216 28.92C186.656 28.92 187.868 29.112 188.852 29.496C189.836 29.856 190.604 30.348 191.156 30.972C191.732 31.596 192.14 32.304 192.38 33.096C192.644 33.888 192.776 34.692 192.776 35.508V47.172C192.776 47.412 192.692 47.616 192.524 47.784C192.38 47.928 192.188 48 191.948 48H190.292C190.028 48 189.824 47.928 189.68 47.784C189.536 47.616 189.464 47.412 189.464 47.172V45.624C189.152 46.056 188.732 46.488 188.204 46.92C187.676 47.328 187.016 47.676 186.224 47.964C185.432 48.228 184.46 48.36 183.308 48.36ZM184.064 45.66C185.048 45.66 185.948 45.456 186.764 45.048C187.58 44.616 188.216 43.956 188.672 43.068C189.152 42.18 189.392 41.064 189.392 39.72V38.712L185.216 39.324C183.512 39.564 182.228 39.972 181.364 40.548C180.5 41.1 180.068 41.808 180.068 42.672C180.068 43.344 180.26 43.908 180.644 44.364C181.052 44.796 181.556 45.12 182.156 45.336C182.78 45.552 183.416 45.66 184.064 45.66ZM204.791 48.36C203.471 48.36 202.331 48.132 201.371 47.676C200.411 47.196 199.619 46.56 198.995 45.768C198.395 44.952 197.939 44.028 197.627 42.996C197.339 41.964 197.171 40.872 197.123 39.72C197.099 39.336 197.087 38.976 197.087 38.64C197.087 38.304 197.099 37.944 197.123 37.56C197.171 36.432 197.339 35.352 197.627 34.32C197.939 33.288 198.395 32.364 198.995 31.548C199.619 30.732 200.411 30.096 201.371 29.64C202.331 29.16 203.471 28.92 204.791 28.92C206.207 28.92 207.383 29.172 208.319 29.676C209.255 30.18 210.023 30.804 210.623 31.548V23.268C210.623 23.028 210.695 22.836 210.839 22.692C211.007 22.524 211.211 22.44 211.451 22.44H213.179C213.419 22.44 213.611 22.524 213.755 22.692C213.923 22.836 214.007 23.028 214.007 23.268V47.172C214.007 47.412 213.923 47.616 213.755 47.784C213.611 47.928 213.419 48 213.179 48H211.559C211.295 48 211.091 47.928 210.947 47.784C210.803 47.616 210.731 47.412 210.731 47.172V45.66C210.131 46.428 209.351 47.076 208.391 47.604C207.431 48.108 206.231 48.36 204.791 48.36ZM205.547 45.444C206.747 45.444 207.707 45.168 208.427 44.616C209.147 44.064 209.687 43.368 210.047 42.528C210.407 41.664 210.599 40.788 210.623 39.9C210.647 39.516 210.659 39.06 210.659 38.532C210.659 37.98 210.647 37.512 210.623 37.128C210.599 36.288 210.395 35.46 210.011 34.644C209.651 33.828 209.099 33.156 208.355 32.628C207.635 32.1 206.699 31.836 205.547 31.836C204.323 31.836 203.351 32.112 202.631 32.664C201.911 33.192 201.395 33.9 201.083 34.788C200.771 35.652 200.591 36.588 200.543 37.596C200.519 38.292 200.519 38.988 200.543 39.684C200.591 40.692 200.771 41.64 201.083 42.528C201.395 43.392 201.911 44.1 202.631 44.652C203.351 45.18 204.323 45.444 205.547 45.444Z" fill="white"/>
</svg>
