<svg width="90" height="90" viewBox="0 0 90 90" fill="none" xmlns="http://www.w3.org/2000/svg">
<rect x="0.5" y="0.5" width="89" height="89" rx="24.5" fill="#F8F8F8" stroke="#73B0CF"/>
<path d="M18.2698 68C17.9312 68 17.6349 67.8714 17.381 67.6143C17.127 67.3571 17 67.0571 17 66.7143C17 66.5 17.0212 66.2643 17.0635 66.0071L32.8095 24.4143C32.9788 23.9857 33.2116 23.6429 33.5079 23.3857C33.8042 23.1286 34.2487 23 34.8413 23H39.1587C39.709 23 40.1323 23.1286 40.4286 23.3857C40.7672 23.6429 41.0212 23.9857 41.1905 24.4143L56.873 66.0071C56.9577 66.2643 57 66.5 57 66.7143C57 67.0571 56.873 67.3571 56.619 67.6143C56.3651 67.8714 56.0688 68 55.7302 68H52.4921C51.9841 68 51.6032 67.8714 51.3492 67.6143C51.1376 67.3571 50.9894 67.1214 50.9048 66.9071L47.4127 57.7786H26.5873L23.0952 66.9071C23.0529 67.1214 22.9048 67.3571 22.6508 67.6143C22.3968 67.8714 22.0159 68 21.5079 68H18.2698ZM28.4286 52.25H45.5714L37 29.4286L28.4286 52.25Z" fill="#187AB9"/>
<path fill-rule="evenodd" clip-rule="evenodd" d="M73.4959 40.75L63.248 23L53 40.75H56.8382L63.248 29.6479L69.6577 40.75H73.4959Z" fill="#187AB9"/>
</svg>
