<svg width="374" height="227" viewBox="0 0 374 227" fill="none" xmlns="http://www.w3.org/2000/svg">
<path d="M211.278 131.58C211.804 131.304 212.294 131.03 212.792 130.78C228.346 123.022 239.265 110.872 246.442 95.1773C247.01 93.9525 247.33 92.6595 247.041 91.3095C246.685 89.6619 245.748 89.315 244.513 90.4412C243.118 91.7172 241.777 93.0652 240.503 94.4626C232.492 103.249 222.427 108.461 211.083 111.415C201.491 113.912 191.727 114.966 181.835 114.382C169.988 113.682 158.676 110.84 148.099 105.347C141.631 101.993 135.958 97.2862 131.465 91.5446C131.166 91.1371 130.843 90.7477 130.497 90.3786C129.551 89.4477 128.735 89.5368 128.036 90.6744C127.176 92.0812 127.498 93.4672 128.248 94.8C129.797 97.5511 131.383 100.281 132.915 103.042C136.033 108.664 139.973 113.65 144.5 118.189C149.398 123.1 154.876 127.214 161.107 130.287C161.981 130.72 162.682 131.091 162.648 132.339C162.229 147.287 155.966 158.82 142.497 165.68C129.469 172.316 113.745 168.986 103.815 157.954C97.4758 150.91 94.1587 142.607 94.1455 133.116C94.1019 100.695 94.0129 68.2733 94.1871 35.8632C94.259 22.6861 100.007 12.2297 111.112 5.02117C118.435 0.266033 126.542 -0.966361 135.073 0.724861C137.535 1.21403 140.024 1.76007 142.385 2.60189C148.289 4.70834 153.102 8.40362 157.081 13.2327C166.563 24.735 176.056 36.2241 185.559 47.6999C186.151 48.4185 186.761 49.1238 187.464 49.9561C189.404 47.6146 191.21 45.438 193.013 43.2576C200.821 33.8175 208.538 24.2977 216.467 14.9618C221.263 9.32317 227.07 4.82209 234.034 2.14117C247.298 -2.96094 262.204 1.26522 271.332 12.5805C276.932 19.516 279.752 27.4905 279.761 36.3903C279.801 68.5558 279.854 100.721 279.736 132.885C279.695 143.993 275.48 153.468 267.051 160.815C253.167 172.93 232.708 171.432 220.563 157.559C214.958 151.158 211.963 143.671 211.263 135.232C211.193 134.043 211.278 132.841 211.278 131.58ZM254.224 92.0622L254.122 92.0452C254.078 91.4176 254.071 90.7824 253.982 90.1606C253.539 87.0322 252.478 84.173 250.163 81.9206C248.703 80.5024 246.984 79.6587 244.88 79.9146C243.555 80.0758 242.838 80.8114 242.699 82.1026C242.47 84.2583 243.203 85.2499 245.392 85.5438C247.879 85.8794 249.405 87.2218 249.909 89.6752C250.125 90.7199 250.168 91.8025 250.398 92.8434C250.585 93.8214 250.889 94.7732 251.304 95.6779C251.507 96.0893 252.2 96.5254 252.63 96.4799C253.06 96.4344 253.59 95.8466 253.709 95.3992C253.989 94.3166 254.063 93.1771 254.224 92.0622ZM121.14 92.5438C121.245 93.1126 121.311 94.1971 121.682 95.1736C121.85 95.621 122.576 95.9907 123.117 96.1216C123.797 96.2979 124.344 95.8315 124.554 95.1736C124.727 94.5725 124.841 93.9559 124.893 93.3326C125.001 92.3315 124.988 91.3133 125.152 90.3236C125.737 86.799 126.917 85.6633 130.482 85.0755C130.545 85.0755 130.607 85.0622 130.671 85.049C132.175 84.7361 132.881 83.6573 132.712 81.932C132.551 80.2844 131.766 79.4937 130.183 79.4672C128.32 79.4425 126.748 80.1877 125.414 81.4352C122.352 84.3095 121.337 87.9991 121.14 92.5438Z" fill="#C9FCFF"/>
<path d="M8.89485 192.383C14.8475 185.576 24.5772 185.578 29.2821 192.999C29.6968 192.392 29.9845 191.82 30.4068 191.374C33.7769 187.815 37.9176 186.659 42.6546 187.635C47.3217 188.597 50.2506 192.072 50.7429 197.115C50.8584 198.308 50.9322 199.51 50.9322 200.718C50.9493 206.974 50.9645 213.231 50.9171 219.477C50.9235 220.672 50.755 221.862 50.4173 223.009C49.8493 224.852 48.2873 225.889 46.4243 225.93C44.4533 225.976 42.9386 225.117 42.2286 223.301C41.7951 222.123 41.5727 220.878 41.5717 219.623C41.5035 214.191 41.5717 208.759 41.5262 203.317C41.5262 201.803 41.4148 200.291 41.193 198.793C40.6951 195.57 38.0993 194.072 35.0416 195.24C32.6011 196.171 31.1376 198.04 30.7551 200.587C30.457 202.71 30.2976 204.851 30.278 206.995C30.2061 211.1 30.278 215.207 30.2421 219.319C30.2459 220.391 30.1271 221.46 29.888 222.504C29.6662 223.502 29.1037 224.391 28.2972 225.018C27.4908 225.645 26.4912 225.97 25.4709 225.938C23.4242 225.917 21.7505 224.662 21.2222 222.554C20.9644 221.449 20.8373 220.317 20.8436 219.183C20.7906 213.246 20.8152 207.308 20.7546 201.372C20.7511 200.174 20.5978 198.982 20.2983 197.822C19.7682 195.851 18.441 194.933 16.4019 194.872C13.1832 194.777 11.0381 196.218 10.3054 199.385C9.80006 201.659 9.51851 203.978 9.46475 206.307C9.336 210.598 9.44959 214.896 9.41173 219.2C9.41235 220.272 9.29615 221.342 9.06523 222.389C8.55214 224.594 6.85572 225.932 4.75224 225.948C2.64876 225.963 0.914473 224.62 0.346476 222.482C0.13407 221.689 0.0233687 220.872 0.0170399 220.051C-0.00567997 210.95 -0.00567997 201.855 0.0170399 192.766C0.0202612 191.946 0.13102 191.13 0.346476 190.339C0.562745 189.472 1.05727 188.701 1.75403 188.143C2.4508 187.585 3.31127 187.271 4.2032 187.25C5.12509 187.221 6.03119 187.495 6.78326 188.03C7.53534 188.564 8.09209 189.331 8.3685 190.212C8.57677 190.847 8.68848 191.524 8.89485 192.383Z" fill="#C9FCFF"/>
<path d="M107.088 192.409C113.232 185.489 122.911 185.669 127.347 192.713L128.75 191.272C132.413 187.527 136.819 186.488 141.77 187.901C145.793 189.048 148.151 191.835 148.809 195.964C149.059 197.588 149.185 199.227 149.188 200.869C149.23 207.063 149.23 213.256 149.188 219.45C149.195 220.584 149.05 221.714 148.755 222.81C148.198 224.736 146.613 225.858 144.69 225.929C142.669 226.004 140.973 224.967 140.335 222.973C139.97 221.768 139.786 220.516 139.79 219.257C139.714 213.254 139.739 207.249 139.678 201.245C139.681 200.172 139.544 199.104 139.271 198.067C138.542 195.464 136.448 194.34 133.839 195.081C131.378 195.777 129.734 197.424 129.202 199.868C128.76 202.032 128.524 204.233 128.496 206.442C128.392 210.802 128.496 215.163 128.441 219.524C128.446 220.72 128.274 221.91 127.928 223.054C127.301 224.95 125.656 225.963 123.7 225.938C121.83 225.913 120.292 224.914 119.664 223.06C119.339 222.041 119.176 220.977 119.179 219.907C119.122 214.156 119.149 208.406 119.101 202.653C119.092 201.326 118.984 200.002 118.779 198.691C118.346 195.928 116.636 194.654 113.857 194.899C111.206 195.134 109.239 196.372 108.665 199.07C108.167 201.402 107.762 203.791 107.677 206.169C107.522 210.529 107.677 214.89 107.609 219.251C107.613 220.509 107.444 221.763 107.105 222.975C106.537 224.829 104.977 225.877 103.129 225.936C101.223 225.995 99.532 224.952 98.8523 223.092C98.5102 222.144 98.3309 221.145 98.3221 220.136C98.2843 210.909 98.2843 201.682 98.3221 192.455C98.3263 191.703 98.4418 190.956 98.6648 190.239C99.284 188.272 100.876 187.154 102.771 187.247C103.692 187.297 104.574 187.639 105.288 188.223C106.003 188.807 106.514 189.603 106.747 190.496C106.882 191.027 106.941 191.583 107.088 192.409Z" fill="#C9FCFF"/>
<path d="M67.0464 208.98C67.0464 212.368 67.9192 215.066 70.0851 217.222C72.7358 219.865 77.2135 220.227 80.5609 217.95C82.2649 216.79 83.753 215.296 85.2715 213.88C86.3261 212.896 87.4469 212.416 88.8688 212.848C90.2074 213.252 90.8568 214.037 90.9874 215.423C91.1445 217.101 90.4611 218.513 89.5352 219.818C87.587 222.561 84.8493 224.207 81.6893 225.127C77.4865 226.381 72.9976 226.29 68.8488 224.867C63.5475 223.066 60.255 219.253 58.6817 213.978C57.2011 209.108 57.2156 203.905 58.7233 199.043C61.7526 189.156 70.0624 186.517 77.4861 187.313C84.9098 188.109 90.7621 193.602 91.5308 202.041C91.9738 206.906 90.3626 208.8 85.5517 208.931C80.1955 209.075 74.8336 208.977 69.4736 208.984L67.0464 208.98ZM82.6303 203.351C82.2516 196.927 79.033 193.577 73.921 194.087C69.945 194.485 66.609 199.129 67.3114 203.351H82.6303Z" fill="#C9FCFF"/>
<path d="M165.414 208.98C164.994 213.305 167.625 218.146 171.662 219.107C174.324 219.742 176.84 219.418 179.046 217.816C180.561 216.71 181.91 215.351 183.336 214.115C183.764 213.735 184.148 213.28 184.641 213.038C185.202 212.736 185.84 212.608 186.475 212.668C187.109 212.728 187.712 212.974 188.208 213.375C189.279 214.192 189.505 215.374 189.243 216.619C188.897 218.263 188.06 219.666 186.922 220.895C183.97 224.076 180.191 225.561 175.988 225.824C173.662 225.989 171.325 225.838 169.04 225.375C162.563 223.998 158.575 219.795 156.811 213.525C155.47 208.814 155.522 203.814 156.962 199.133C159.17 191.787 164.8 187.459 172.446 187.176C177.842 186.987 182.556 188.523 186.095 192.785C188.876 196.135 190.071 200.056 189.747 204.409C189.571 206.796 188.637 207.964 186.293 208.537C185.068 208.817 183.814 208.957 182.556 208.952C177.51 208.997 172.463 208.971 167.409 208.971L165.414 208.98ZM165.361 203.315H180.812C180.896 200.987 180.189 198.549 179.01 196.945C178.327 196.01 177.43 195.253 176.395 194.738C175.359 194.223 174.214 193.965 173.058 193.986C171.902 194.006 170.767 194.305 169.751 194.857C168.734 195.409 167.865 196.198 167.216 197.157C165.991 198.971 165.408 201.013 165.361 203.321V203.315Z" fill="#C9FCFF"/>
<path d="M200.813 192.286C206.658 184.583 217.573 185.775 220.193 192.754C220.655 192.25 221.066 191.822 221.452 191.372C224.624 187.686 228.672 186.424 233.363 187.201C237.678 187.925 240.783 191.751 241.207 196.681C241.304 197.819 241.321 198.956 241.321 200.094C241.332 207.105 241.332 214.12 241.321 221.139C241.337 221.899 241.31 222.658 241.24 223.414C241.082 224.781 240.372 225.489 239.238 225.5C238.152 225.521 237.478 224.958 237.209 223.661C237.089 222.978 237.036 222.285 237.052 221.592C237.025 214.329 237.031 207.063 236.974 199.8C236.98 198.413 236.833 197.031 236.537 195.676C235.779 192.453 233.575 190.786 230.26 190.747C226.629 190.709 224.179 192.506 222.687 195.725C221.638 198.001 221.206 200.427 221.172 202.904C221.098 208.903 221.114 214.903 221.074 220.904C221.085 221.85 221.022 222.795 220.884 223.731C220.682 224.929 220.027 225.479 219.018 225.496C217.959 225.517 217.141 224.865 216.935 223.689C216.833 222.939 216.794 222.182 216.818 221.426C216.778 214.099 216.782 206.771 216.689 199.445C216.682 197.934 216.467 196.431 216.051 194.978C215.271 192.377 213.4 191.156 210.661 191.063C207.236 190.948 204.716 192.457 202.968 195.325C201.378 197.934 200.808 200.848 200.768 203.844C200.69 209.845 200.73 215.846 200.698 221.856C200.702 222.61 200.624 223.362 200.467 224.099C200.264 224.998 199.619 225.47 198.685 225.508C197.716 225.547 196.945 225.108 196.709 224.099C196.506 223.113 196.416 222.108 196.438 221.101C196.419 211.816 196.419 202.53 196.438 193.244C196.438 192.106 196.423 190.968 196.481 189.831C196.515 189.267 196.628 188.711 196.818 188.179C197.14 187.283 197.877 187.004 198.782 187.03C199.729 187.057 200.387 187.546 200.527 188.451C200.694 189.624 200.715 190.824 200.813 192.286Z" fill="#C9FCFF"/>
<path d="M274.312 219.552C273.672 220.106 273.25 220.464 272.833 220.828C269.047 224.152 264.588 225.642 259.601 225.5C254.614 225.358 250.788 222.442 249.735 217.882C248.37 211.974 250.642 207.687 255.722 205.748C258.168 204.809 260.834 204.402 263.41 203.852C266.061 203.283 268.742 202.875 271.398 202.335C272.182 202.178 272.928 201.834 273.841 201.527C273.752 199.671 273.81 197.894 273.553 196.163C273.161 193.53 271.516 191.85 268.943 191.221C265.535 190.39 262.182 190.621 258.948 192.049C257.071 192.878 255.729 194.222 255.019 196.181C254.782 196.833 254.489 197.464 254.19 198.09C253.766 198.975 252.991 199.184 252.119 198.994C251.246 198.805 250.634 198.221 250.591 197.301C250.553 196.61 250.634 195.919 250.829 195.255C252.155 190.946 255.39 188.68 259.489 187.599C263.136 186.638 266.873 186.729 270.55 187.599C274.969 188.64 277.745 192.017 277.913 196.759C278.082 201.554 278.049 206.358 277.995 211.157C277.951 214.9 277.995 218.614 279.212 222.207C279.298 222.445 279.362 222.69 279.401 222.94C279.581 224.184 279.157 224.996 278.137 225.392C277.069 225.807 276.088 225.428 275.486 224.254C275.174 223.648 275.014 222.958 274.818 222.294C274.704 221.867 274.612 221.434 274.543 220.997C274.464 220.618 274.416 220.243 274.312 219.552ZM273.733 205.478C269.077 206.466 264.7 207.357 260.345 208.345C259.12 208.634 257.935 209.071 256.816 209.648C256.129 209.975 255.524 210.453 255.047 211.046C254.569 211.64 254.232 212.334 254.059 213.076C253.113 216.978 255.621 220.8 259.633 221.187C263.836 221.594 267.657 220.428 270.741 217.454C271.632 216.563 272.335 215.502 272.809 214.335C273.96 211.529 273.871 208.554 273.733 205.478Z" fill="#C9FCFF"/>
<path d="M321.626 206.889C321.742 210.448 322.232 213.61 323.881 216.466C325.915 219.988 328.993 221.746 333.094 221.706C337.195 221.666 339.986 219.611 341.951 216.208C342.388 215.449 342.652 214.587 343.042 213.794C343.691 212.467 344.687 211.987 345.762 212.418C346.838 212.848 347.328 213.857 346.925 215.247C345.41 220.498 341.881 223.746 336.672 225.119C334.022 225.819 331.277 225.707 328.611 225.005C323.951 223.78 320.67 220.834 318.955 216.396C316.37 209.718 316.327 202.898 318.932 196.222C321.357 190.007 326.708 186.811 333.376 186.987C339.851 187.159 345.325 190.955 347.197 198.992C347.518 200.472 347.702 201.978 347.748 203.491C347.86 205.956 347.008 206.847 344.551 206.88C341.332 206.921 338.113 206.891 334.895 206.893H321.624L321.626 206.889ZM322.018 202.985H343.079C343.303 196.285 339.28 190.633 332.583 190.76C326.6 190.872 321.378 196.895 322.018 202.985Z" fill="#C9FCFF"/>
<path d="M300.682 201.614C301.08 202.246 301.44 202.834 301.818 203.404C305.689 209.241 309.56 215.08 313.43 220.919C313.826 221.484 314.128 222.11 314.324 222.772C314.619 223.928 314.242 224.687 313.335 225.182C312.341 225.722 311.423 225.599 310.617 224.689C310.09 224.06 309.611 223.394 309.181 222.696C305.592 217.201 302.006 211.703 298.425 206.201C298.124 205.74 297.787 205.302 297.39 204.745C295.839 206.227 294.328 207.568 292.963 209.041C292.558 209.475 292.407 210.283 292.395 210.926C292.342 214.338 292.395 217.751 292.357 221.164C292.337 222.175 292.235 223.182 292.053 224.177C291.888 225.125 291.17 225.521 290.254 225.504C289.338 225.487 288.629 225.125 288.457 224.156C288.249 223.164 288.128 222.156 288.095 221.143C288.073 206.429 288.069 191.714 288.084 176.997C288.073 176.363 288.111 175.729 288.198 175.101C288.444 173.544 289.042 173.015 290.383 173.04C291.632 173.07 292.121 173.575 292.276 175.141C292.363 176.019 292.361 176.906 292.361 177.795C292.369 185.69 292.369 193.584 292.361 201.478V204.003C293.156 203.268 293.65 202.843 294.111 202.382C298.431 198.047 302.75 193.709 307.068 189.368C307.735 188.698 308.448 188.076 309.202 187.506C310.111 186.822 311.296 186.871 311.985 187.506C312.675 188.142 312.807 189.328 312.156 190.282C311.751 190.844 311.29 191.365 310.781 191.835C307.741 194.772 304.692 197.702 301.637 200.623C301.32 200.928 301.034 201.254 300.682 201.614Z" fill="#C9FCFF"/>
<path d="M359.777 193.676C360.379 192.512 360.778 191.605 361.291 190.769C363.741 186.788 368.611 185.783 372.462 188.441C373.352 189.055 373.946 189.797 373.787 190.959C373.615 192.206 372.615 192.936 371.366 192.665C370.629 192.498 369.923 192.212 369.192 192.021C366.417 191.293 364.054 192.224 362.484 194.628C361.129 196.713 360.602 199.061 360.523 201.453C360.322 207.761 360.244 214.073 360.133 220.385C360.114 221.333 360.172 222.281 360.099 223.229C359.977 224.776 359.171 225.561 357.874 225.504C356.658 225.453 355.981 224.698 355.852 223.229C355.814 222.789 355.823 222.345 355.823 221.901C355.823 211.606 355.823 201.312 355.823 191.018C355.807 190.198 355.853 189.377 355.962 188.564C356.14 187.438 356.736 186.936 357.704 186.92C358.671 186.905 359.284 187.343 359.44 188.517C359.629 189.886 359.629 191.281 359.699 192.663C359.707 192.893 359.731 193.118 359.777 193.676Z" fill="#C9FCFF"/>
</svg>
