<svg width="90" height="90" viewBox="0 0 90 90" fill="none" xmlns="http://www.w3.org/2000/svg">
<rect x="0.5" y="0.5" width="89" height="89" rx="24.5" fill="#F8F8F8" stroke="#73B0CF"/>
<path d="M31.1952 55C30.7119 55 30.3011 54.8539 29.9628 54.5618C29.6729 54.221 29.5279 53.8071 29.5279 53.3202V38.1292H14.6673C14.184 38.1292 13.7732 37.9831 13.4349 37.691C13.145 37.3502 13 36.9363 13 36.4494V34.1124C13 33.6255 13.145 33.236 13.4349 32.9438C13.7732 32.603 14.184 32.4326 14.6673 32.4326H29.5279V17.6798C29.5279 17.1929 29.6729 16.8034 29.9628 16.5112C30.3011 16.1704 30.7119 16 31.1952 16H33.7323C34.2156 16 34.6022 16.1704 34.8922 16.5112C35.2305 16.8034 35.3996 17.1929 35.3996 17.6798V32.4326H50.3327C50.816 32.4326 51.2026 32.603 51.4926 32.9438C51.8309 33.236 52 33.6255 52 34.1124V36.4494C52 36.9363 51.8309 37.3502 51.4926 37.691C51.2026 37.9831 50.816 38.1292 50.3327 38.1292H35.3996V53.3202C35.3996 53.8071 35.2305 54.221 34.8922 54.5618C34.6022 54.8539 34.2156 55 33.7323 55H31.1952Z" fill="#187AB9"/>
<path fill-rule="evenodd" clip-rule="evenodd" d="M78 52H47V49H78V52Z" fill="#187AB9"/>
<path fill-rule="evenodd" clip-rule="evenodd" d="M78 59H47V56H78V59Z" fill="#187AB9"/>
<path fill-rule="evenodd" clip-rule="evenodd" d="M78 66H47V63H78V66Z" fill="#187AB9"/>
<path fill-rule="evenodd" clip-rule="evenodd" d="M78 73H47V70H78V73Z" fill="#187AB9"/>
</svg>
