<svg width="187" height="70" viewBox="0 0 187 70" fill="none" xmlns="http://www.w3.org/2000/svg">
<rect width="187" height="70" rx="25" fill="#D8555A"/>
<path d="M56.4 48.36C54.312 48.36 52.56 48.048 51.144 47.424C49.728 46.776 48.636 45.948 47.868 44.94C47.124 43.908 46.728 42.816 46.68 41.664C46.68 41.472 46.752 41.304 46.896 41.16C47.064 40.992 47.256 40.908 47.472 40.908H49.308C49.596 40.908 49.812 40.98 49.956 41.124C50.1 41.268 50.196 41.436 50.244 41.628C50.364 42.204 50.652 42.78 51.108 43.356C51.588 43.908 52.248 44.376 53.088 44.76C53.952 45.12 55.056 45.3 56.4 45.3C58.464 45.3 59.976 44.94 60.936 44.22C61.92 43.476 62.412 42.492 62.412 41.268C62.412 40.428 62.148 39.756 61.62 39.252C61.116 38.724 60.336 38.256 59.28 37.848C58.224 37.44 56.856 36.996 55.176 36.516C53.424 36.012 51.972 35.46 50.82 34.86C49.668 34.26 48.804 33.516 48.228 32.628C47.676 31.74 47.4 30.612 47.4 29.244C47.4 27.948 47.748 26.796 48.444 25.788C49.14 24.756 50.136 23.94 51.432 23.34C52.752 22.74 54.348 22.44 56.22 22.44C57.708 22.44 59.004 22.644 60.108 23.052C61.236 23.436 62.172 23.964 62.916 24.636C63.66 25.284 64.224 25.992 64.608 26.76C64.992 27.504 65.196 28.236 65.22 28.956C65.22 29.124 65.16 29.292 65.04 29.46C64.92 29.604 64.728 29.676 64.464 29.676H62.556C62.388 29.676 62.208 29.628 62.016 29.532C61.848 29.436 61.716 29.256 61.62 28.992C61.476 28.008 60.924 27.18 59.964 26.508C59.004 25.836 57.756 25.5 56.22 25.5C54.66 25.5 53.388 25.8 52.404 26.4C51.444 27 50.964 27.936 50.964 29.208C50.964 30.024 51.192 30.708 51.648 31.26C52.104 31.788 52.824 32.256 53.808 32.664C54.792 33.072 56.076 33.504 57.66 33.96C59.58 34.488 61.152 35.052 62.376 35.652C63.6 36.228 64.5 36.96 65.076 37.848C65.676 38.712 65.976 39.828 65.976 41.196C65.976 42.708 65.58 44.004 64.788 45.084C63.996 46.14 62.88 46.956 61.44 47.532C60.024 48.084 58.344 48.36 56.4 48.36ZM71.0905 48C70.8505 48 70.6465 47.928 70.4785 47.784C70.3345 47.616 70.2625 47.412 70.2625 47.172V23.268C70.2625 23.028 70.3345 22.836 70.4785 22.692C70.6465 22.524 70.8505 22.44 71.0905 22.44H72.8905C73.1545 22.44 73.3585 22.524 73.5025 22.692C73.6465 22.836 73.7185 23.028 73.7185 23.268V31.656C74.3665 30.84 75.1585 30.18 76.0945 29.676C77.0305 29.172 78.2185 28.92 79.6585 28.92C81.2185 28.92 82.5385 29.268 83.6185 29.964C84.7225 30.636 85.5505 31.584 86.1025 32.808C86.6785 34.008 86.9665 35.412 86.9665 37.02V47.172C86.9665 47.412 86.8945 47.616 86.7505 47.784C86.6065 47.928 86.4025 48 86.1385 48H84.3385C84.0985 48 83.8945 47.928 83.7265 47.784C83.5825 47.616 83.5105 47.412 83.5105 47.172V37.2C83.5105 35.52 83.1025 34.212 82.2865 33.276C81.4705 32.316 80.2705 31.836 78.6865 31.836C77.1985 31.836 75.9985 32.316 75.0865 33.276C74.1745 34.212 73.7185 35.52 73.7185 37.2V47.172C73.7185 47.412 73.6465 47.616 73.5025 47.784C73.3585 47.928 73.1545 48 72.8905 48H71.0905ZM97.384 48.36C96.184 48.36 95.092 48.12 94.108 47.64C93.124 47.16 92.332 46.512 91.732 45.696C91.132 44.88 90.832 43.956 90.832 42.924C90.832 41.268 91.504 39.948 92.848 38.964C94.192 37.98 95.944 37.332 98.104 37.02L103.468 36.264V35.22C103.468 34.068 103.132 33.168 102.46 32.52C101.812 31.872 100.744 31.548 99.256 31.548C98.176 31.548 97.3 31.764 96.628 32.196C95.98 32.628 95.524 33.18 95.26 33.852C95.116 34.212 94.864 34.392 94.504 34.392H92.884C92.62 34.392 92.416 34.32 92.272 34.176C92.152 34.008 92.092 33.816 92.092 33.6C92.092 33.24 92.224 32.796 92.488 32.268C92.776 31.74 93.208 31.224 93.784 30.72C94.36 30.216 95.092 29.796 95.98 29.46C96.892 29.1 97.996 28.92 99.292 28.92C100.732 28.92 101.944 29.112 102.928 29.496C103.912 29.856 104.68 30.348 105.232 30.972C105.808 31.596 106.216 32.304 106.456 33.096C106.72 33.888 106.852 34.692 106.852 35.508V47.172C106.852 47.412 106.768 47.616 106.6 47.784C106.456 47.928 106.264 48 106.024 48H104.368C104.104 48 103.9 47.928 103.756 47.784C103.612 47.616 103.54 47.412 103.54 47.172V45.624C103.228 46.056 102.808 46.488 102.28 46.92C101.752 47.328 101.092 47.676 100.3 47.964C99.508 48.228 98.536 48.36 97.384 48.36ZM98.14 45.66C99.124 45.66 100.024 45.456 100.84 45.048C101.656 44.616 102.292 43.956 102.748 43.068C103.228 42.18 103.468 41.064 103.468 39.72V38.712L99.292 39.324C97.588 39.564 96.304 39.972 95.44 40.548C94.576 41.1 94.144 41.808 94.144 42.672C94.144 43.344 94.336 43.908 94.72 44.364C95.128 44.796 95.632 45.12 96.232 45.336C96.856 45.552 97.492 45.66 98.14 45.66ZM112.855 48C112.615 48 112.411 47.928 112.243 47.784C112.099 47.616 112.027 47.412 112.027 47.172V30.144C112.027 29.904 112.099 29.7 112.243 29.532C112.411 29.364 112.615 29.28 112.855 29.28H114.511C114.751 29.28 114.955 29.364 115.123 29.532C115.291 29.7 115.375 29.904 115.375 30.144V31.728C115.855 30.912 116.515 30.3 117.355 29.892C118.195 29.484 119.203 29.28 120.379 29.28H121.819C122.059 29.28 122.251 29.364 122.395 29.532C122.539 29.676 122.611 29.868 122.611 30.108V31.584C122.611 31.824 122.539 32.016 122.395 32.16C122.251 32.304 122.059 32.376 121.819 32.376H119.659C118.363 32.376 117.343 32.76 116.599 33.528C115.855 34.272 115.483 35.292 115.483 36.588V47.172C115.483 47.412 115.399 47.616 115.231 47.784C115.063 47.928 114.859 48 114.619 48H112.855ZM132.804 48.36C130.332 48.36 128.364 47.604 126.9 46.092C125.436 44.556 124.632 42.468 124.488 39.828C124.464 39.516 124.452 39.12 124.452 38.64C124.452 38.136 124.464 37.728 124.488 37.416C124.584 35.712 124.98 34.224 125.676 32.952C126.372 31.656 127.32 30.66 128.52 29.964C129.744 29.268 131.172 28.92 132.804 28.92C134.628 28.92 136.152 29.304 137.376 30.072C138.624 30.84 139.572 31.932 140.22 33.348C140.868 34.764 141.191 36.42 141.191 38.316V38.928C141.191 39.192 141.108 39.396 140.94 39.54C140.796 39.684 140.604 39.756 140.364 39.756H127.908C127.908 39.78 127.908 39.828 127.908 39.9C127.908 39.972 127.908 40.032 127.908 40.08C127.956 41.064 128.172 41.988 128.556 42.852C128.94 43.692 129.492 44.376 130.212 44.904C130.932 45.432 131.796 45.696 132.804 45.696C133.668 45.696 134.388 45.564 134.964 45.3C135.54 45.036 136.008 44.748 136.368 44.436C136.728 44.1 136.968 43.848 137.088 43.68C137.304 43.368 137.472 43.188 137.592 43.14C137.712 43.068 137.904 43.032 138.168 43.032H139.896C140.136 43.032 140.328 43.104 140.472 43.248C140.64 43.368 140.712 43.548 140.688 43.788C140.664 44.148 140.472 44.592 140.112 45.12C139.752 45.624 139.236 46.128 138.564 46.632C137.892 47.136 137.076 47.556 136.116 47.892C135.156 48.204 134.052 48.36 132.804 48.36ZM127.908 37.272H137.772V37.164C137.772 36.084 137.568 35.124 137.16 34.284C136.776 33.444 136.212 32.784 135.468 32.304C134.724 31.8 133.836 31.548 132.804 31.548C131.772 31.548 130.884 31.8 130.14 32.304C129.42 32.784 128.868 33.444 128.484 34.284C128.1 35.124 127.908 36.084 127.908 37.164V37.272Z" fill="white"/>
</svg>
