<svg width="963" height="99" viewBox="0 0 963 99" fill="none" xmlns="http://www.w3.org/2000/svg">
<path d="M815.139 0C846.466 0 870.814 30.2517 889.519 58.086C906.205 82.9161 932.907 99 963 99H0C30.0935 99 56.7954 82.9161 73.4812 58.086C92.1857 30.2516 116.534 0 147.861 0H815.139Z" fill="white"/>
<path d="M372.855 62C372.615 62 372.411 61.928 372.243 61.784C372.099 61.616 372.027 61.412 372.027 61.172V37.664C372.027 37.4 372.099 37.196 372.243 37.052C372.411 36.884 372.615 36.8 372.855 36.8H374.655C374.943 36.8 375.159 36.872 375.303 37.016C375.447 37.16 375.531 37.28 375.555 37.376L383.187 51.92L390.855 37.376C390.903 37.28 390.987 37.16 391.107 37.016C391.251 36.872 391.467 36.8 391.755 36.8H393.519C393.783 36.8 393.987 36.884 394.131 37.052C394.299 37.196 394.383 37.4 394.383 37.664V61.172C394.383 61.412 394.299 61.616 394.131 61.784C393.987 61.928 393.783 62 393.519 62H391.755C391.515 62 391.311 61.928 391.143 61.784C390.999 61.616 390.927 61.412 390.927 61.172V43.46L384.915 55.196C384.819 55.436 384.675 55.628 384.483 55.772C384.291 55.892 384.051 55.952 383.763 55.952H382.647C382.335 55.952 382.083 55.892 381.891 55.772C381.723 55.628 381.579 55.436 381.459 55.196L375.447 43.46V61.172C375.447 61.412 375.363 61.616 375.195 61.784C375.051 61.928 374.859 62 374.619 62H372.855ZM407.593 62.36C405.121 62.36 403.153 61.604 401.689 60.092C400.225 58.556 399.421 56.468 399.277 53.828C399.253 53.516 399.241 53.12 399.241 52.64C399.241 52.136 399.253 51.728 399.277 51.416C399.373 49.712 399.769 48.224 400.465 46.952C401.161 45.656 402.109 44.66 403.309 43.964C404.533 43.268 405.961 42.92 407.593 42.92C409.417 42.92 410.941 43.304 412.165 44.072C413.413 44.84 414.361 45.932 415.009 47.348C415.657 48.764 415.981 50.42 415.981 52.316V52.928C415.981 53.192 415.897 53.396 415.729 53.54C415.585 53.684 415.393 53.756 415.153 53.756H402.697C402.697 53.78 402.697 53.828 402.697 53.9C402.697 53.972 402.697 54.032 402.697 54.08C402.745 55.064 402.961 55.988 403.345 56.852C403.729 57.692 404.281 58.376 405.001 58.904C405.721 59.432 406.585 59.696 407.593 59.696C408.457 59.696 409.177 59.564 409.753 59.3C410.329 59.036 410.797 58.748 411.157 58.436C411.517 58.1 411.757 57.848 411.877 57.68C412.093 57.368 412.261 57.188 412.381 57.14C412.501 57.068 412.693 57.032 412.957 57.032H414.685C414.925 57.032 415.117 57.104 415.261 57.248C415.429 57.368 415.501 57.548 415.477 57.788C415.453 58.148 415.261 58.592 414.901 59.12C414.541 59.624 414.025 60.128 413.353 60.632C412.681 61.136 411.865 61.556 410.905 61.892C409.945 62.204 408.841 62.36 407.593 62.36ZM402.697 51.272H412.561V51.164C412.561 50.084 412.357 49.124 411.949 48.284C411.565 47.444 411.001 46.784 410.257 46.304C409.513 45.8 408.625 45.548 407.593 45.548C406.561 45.548 405.673 45.8 404.929 46.304C404.209 46.784 403.657 47.444 403.273 48.284C402.889 49.124 402.697 50.084 402.697 51.164V51.272ZM421.113 62C420.873 62 420.669 61.928 420.501 61.784C420.357 61.616 420.285 61.412 420.285 61.172V44.108C420.285 43.868 420.357 43.676 420.501 43.532C420.669 43.364 420.873 43.28 421.113 43.28H422.733C422.973 43.28 423.165 43.364 423.309 43.532C423.477 43.676 423.561 43.868 423.561 44.108V45.368C424.113 44.624 424.809 44.036 425.649 43.604C426.489 43.148 427.497 42.92 428.673 42.92C431.385 42.896 433.305 44 434.433 46.232C434.985 45.224 435.789 44.42 436.845 43.82C437.901 43.22 439.101 42.92 440.445 42.92C441.693 42.92 442.821 43.208 443.829 43.784C444.861 44.36 445.665 45.236 446.241 46.412C446.841 47.564 447.141 49.016 447.141 50.768V61.172C447.141 61.412 447.057 61.616 446.889 61.784C446.745 61.928 446.553 62 446.313 62H444.621C444.381 62 444.177 61.928 444.009 61.784C443.865 61.616 443.793 61.412 443.793 61.172V51.092C443.793 49.748 443.601 48.692 443.217 47.924C442.833 47.156 442.317 46.616 441.669 46.304C441.021 45.992 440.313 45.836 439.545 45.836C438.921 45.836 438.285 45.992 437.637 46.304C436.989 46.616 436.449 47.156 436.017 47.924C435.609 48.692 435.405 49.748 435.405 51.092V61.172C435.405 61.412 435.321 61.616 435.153 61.784C435.009 61.928 434.817 62 434.577 62H432.885C432.645 62 432.441 61.928 432.273 61.784C432.129 61.616 432.057 61.412 432.057 61.172V51.092C432.057 49.748 431.853 48.692 431.445 47.924C431.037 47.156 430.509 46.616 429.861 46.304C429.213 45.992 428.529 45.836 427.809 45.836C427.185 45.836 426.549 45.992 425.901 46.304C425.253 46.616 424.713 47.156 424.281 47.924C423.873 48.692 423.669 49.736 423.669 51.056V61.172C423.669 61.412 423.585 61.616 423.417 61.784C423.273 61.928 423.081 62 422.841 62H421.113ZM459.729 62.36C457.257 62.36 455.289 61.604 453.825 60.092C452.361 58.556 451.557 56.468 451.413 53.828C451.389 53.516 451.377 53.12 451.377 52.64C451.377 52.136 451.389 51.728 451.413 51.416C451.509 49.712 451.905 48.224 452.601 46.952C453.297 45.656 454.245 44.66 455.445 43.964C456.669 43.268 458.097 42.92 459.729 42.92C461.553 42.92 463.077 43.304 464.301 44.072C465.549 44.84 466.497 45.932 467.145 47.348C467.793 48.764 468.117 50.42 468.117 52.316V52.928C468.117 53.192 468.033 53.396 467.865 53.54C467.721 53.684 467.529 53.756 467.289 53.756H454.833C454.833 53.78 454.833 53.828 454.833 53.9C454.833 53.972 454.833 54.032 454.833 54.08C454.881 55.064 455.097 55.988 455.481 56.852C455.865 57.692 456.417 58.376 457.137 58.904C457.857 59.432 458.721 59.696 459.729 59.696C460.593 59.696 461.313 59.564 461.889 59.3C462.465 59.036 462.933 58.748 463.293 58.436C463.653 58.1 463.893 57.848 464.013 57.68C464.229 57.368 464.397 57.188 464.517 57.14C464.637 57.068 464.829 57.032 465.093 57.032H466.821C467.061 57.032 467.253 57.104 467.397 57.248C467.565 57.368 467.637 57.548 467.613 57.788C467.589 58.148 467.397 58.592 467.037 59.12C466.677 59.624 466.161 60.128 465.489 60.632C464.817 61.136 464.001 61.556 463.041 61.892C462.081 62.204 460.977 62.36 459.729 62.36ZM454.833 51.272H464.697V51.164C464.697 50.084 464.493 49.124 464.085 48.284C463.701 47.444 463.137 46.784 462.393 46.304C461.649 45.8 460.761 45.548 459.729 45.548C458.697 45.548 457.809 45.8 457.065 46.304C456.345 46.784 455.793 47.444 455.409 48.284C455.025 49.124 454.833 50.084 454.833 51.164V51.272ZM490.858 62.36C488.746 62.36 486.946 61.964 485.458 61.172C483.994 60.38 482.866 59.264 482.074 57.824C481.306 56.384 480.874 54.692 480.778 52.748C480.754 51.692 480.742 50.576 480.742 49.4C480.742 48.2 480.754 47.06 480.778 45.98C480.874 44.036 481.306 42.356 482.074 40.94C482.866 39.524 484.006 38.42 485.494 37.628C486.982 36.836 488.77 36.44 490.858 36.44C492.562 36.44 494.038 36.68 495.286 37.16C496.534 37.64 497.554 38.252 498.346 38.996C499.162 39.716 499.762 40.472 500.146 41.264C500.554 42.056 500.77 42.752 500.794 43.352C500.818 43.568 500.758 43.748 500.614 43.892C500.47 44.012 500.278 44.072 500.038 44.072H497.914C497.674 44.072 497.494 44.024 497.374 43.928C497.278 43.832 497.182 43.664 497.086 43.424C496.87 42.8 496.51 42.188 496.006 41.588C495.526 40.988 494.866 40.496 494.026 40.112C493.21 39.704 492.154 39.5 490.858 39.5C488.962 39.5 487.426 40.016 486.25 41.048C485.098 42.08 484.474 43.784 484.378 46.16C484.306 48.296 484.306 50.432 484.378 52.568C484.474 54.968 485.11 56.696 486.286 57.752C487.462 58.784 488.998 59.3 490.894 59.3C492.166 59.3 493.294 59.072 494.278 58.616C495.286 58.136 496.078 57.404 496.654 56.42C497.23 55.436 497.518 54.188 497.518 52.676V51.164H492.118C491.878 51.164 491.674 51.092 491.506 50.948C491.362 50.78 491.29 50.564 491.29 50.3V49.148C491.29 48.884 491.362 48.68 491.506 48.536C491.674 48.368 491.878 48.284 492.118 48.284H500.254C500.518 48.284 500.722 48.368 500.866 48.536C501.01 48.68 501.082 48.884 501.082 49.148V52.604C501.082 54.572 500.674 56.288 499.858 57.752C499.066 59.216 497.902 60.356 496.366 61.172C494.83 61.964 492.994 62.36 490.858 62.36ZM510.97 62.36C509.77 62.36 508.678 62.12 507.694 61.64C506.71 61.16 505.918 60.512 505.318 59.696C504.718 58.88 504.418 57.956 504.418 56.924C504.418 55.268 505.09 53.948 506.434 52.964C507.778 51.98 509.53 51.332 511.69 51.02L517.054 50.264V49.22C517.054 48.068 516.718 47.168 516.046 46.52C515.398 45.872 514.33 45.548 512.842 45.548C511.762 45.548 510.886 45.764 510.214 46.196C509.566 46.628 509.11 47.18 508.846 47.852C508.702 48.212 508.45 48.392 508.09 48.392H506.47C506.206 48.392 506.002 48.32 505.858 48.176C505.738 48.008 505.678 47.816 505.678 47.6C505.678 47.24 505.81 46.796 506.074 46.268C506.362 45.74 506.794 45.224 507.37 44.72C507.946 44.216 508.678 43.796 509.566 43.46C510.478 43.1 511.582 42.92 512.878 42.92C514.318 42.92 515.53 43.112 516.514 43.496C517.498 43.856 518.266 44.348 518.818 44.972C519.394 45.596 519.802 46.304 520.042 47.096C520.306 47.888 520.438 48.692 520.438 49.508V61.172C520.438 61.412 520.354 61.616 520.186 61.784C520.042 61.928 519.85 62 519.61 62H517.954C517.69 62 517.486 61.928 517.342 61.784C517.198 61.616 517.126 61.412 517.126 61.172V59.624C516.814 60.056 516.394 60.488 515.866 60.92C515.338 61.328 514.678 61.676 513.886 61.964C513.094 62.228 512.122 62.36 510.97 62.36ZM511.726 59.66C512.71 59.66 513.61 59.456 514.426 59.048C515.242 58.616 515.878 57.956 516.334 57.068C516.814 56.18 517.054 55.064 517.054 53.72V52.712L512.878 53.324C511.174 53.564 509.89 53.972 509.026 54.548C508.162 55.1 507.73 55.808 507.73 56.672C507.73 57.344 507.922 57.908 508.306 58.364C508.714 58.796 509.218 59.12 509.818 59.336C510.442 59.552 511.078 59.66 511.726 59.66ZM526.477 62C526.237 62 526.033 61.928 525.865 61.784C525.721 61.616 525.649 61.412 525.649 61.172V37.268C525.649 37.028 525.721 36.836 525.865 36.692C526.033 36.524 526.237 36.44 526.477 36.44H528.169C528.433 36.44 528.637 36.524 528.781 36.692C528.925 36.836 528.997 37.028 528.997 37.268V61.172C528.997 61.412 528.925 61.616 528.781 61.784C528.637 61.928 528.433 62 528.169 62H526.477ZM535.231 62C534.991 62 534.787 61.928 534.619 61.784C534.475 61.616 534.403 61.412 534.403 61.172V37.268C534.403 37.028 534.475 36.836 534.619 36.692C534.787 36.524 534.991 36.44 535.231 36.44H536.923C537.187 36.44 537.391 36.524 537.535 36.692C537.679 36.836 537.751 37.028 537.751 37.268V61.172C537.751 61.412 537.679 61.616 537.535 61.784C537.391 61.928 537.187 62 536.923 62H535.231ZM550.573 62.36C548.101 62.36 546.133 61.604 544.669 60.092C543.205 58.556 542.401 56.468 542.257 53.828C542.233 53.516 542.221 53.12 542.221 52.64C542.221 52.136 542.233 51.728 542.257 51.416C542.353 49.712 542.749 48.224 543.445 46.952C544.141 45.656 545.089 44.66 546.289 43.964C547.513 43.268 548.941 42.92 550.573 42.92C552.397 42.92 553.921 43.304 555.145 44.072C556.393 44.84 557.341 45.932 557.989 47.348C558.637 48.764 558.961 50.42 558.961 52.316V52.928C558.961 53.192 558.877 53.396 558.709 53.54C558.565 53.684 558.373 53.756 558.133 53.756H545.677C545.677 53.78 545.677 53.828 545.677 53.9C545.677 53.972 545.677 54.032 545.677 54.08C545.725 55.064 545.941 55.988 546.325 56.852C546.709 57.692 547.261 58.376 547.981 58.904C548.701 59.432 549.565 59.696 550.573 59.696C551.437 59.696 552.157 59.564 552.733 59.3C553.309 59.036 553.777 58.748 554.137 58.436C554.497 58.1 554.737 57.848 554.857 57.68C555.073 57.368 555.241 57.188 555.361 57.14C555.481 57.068 555.673 57.032 555.937 57.032H557.665C557.905 57.032 558.097 57.104 558.241 57.248C558.409 57.368 558.481 57.548 558.457 57.788C558.433 58.148 558.241 58.592 557.881 59.12C557.521 59.624 557.005 60.128 556.333 60.632C555.661 61.136 554.845 61.556 553.885 61.892C552.925 62.204 551.821 62.36 550.573 62.36ZM545.677 51.272H555.541V51.164C555.541 50.084 555.337 49.124 554.929 48.284C554.545 47.444 553.981 46.784 553.237 46.304C552.493 45.8 551.605 45.548 550.573 45.548C549.541 45.548 548.653 45.8 547.909 46.304C547.189 46.784 546.637 47.444 546.253 48.284C545.869 49.124 545.677 50.084 545.677 51.164V51.272ZM564.094 62C563.854 62 563.65 61.928 563.482 61.784C563.338 61.616 563.266 61.412 563.266 61.172V44.144C563.266 43.904 563.338 43.7 563.482 43.532C563.65 43.364 563.854 43.28 564.094 43.28H565.75C565.99 43.28 566.194 43.364 566.362 43.532C566.53 43.7 566.614 43.904 566.614 44.144V45.728C567.094 44.912 567.754 44.3 568.594 43.892C569.434 43.484 570.442 43.28 571.618 43.28H573.058C573.298 43.28 573.49 43.364 573.634 43.532C573.778 43.676 573.85 43.868 573.85 44.108V45.584C573.85 45.824 573.778 46.016 573.634 46.16C573.49 46.304 573.298 46.376 573.058 46.376H570.898C569.602 46.376 568.582 46.76 567.838 47.528C567.094 48.272 566.722 49.292 566.722 50.588V61.172C566.722 61.412 566.638 61.616 566.47 61.784C566.302 61.928 566.098 62 565.858 62H564.094ZM580.217 68.84C580.025 68.84 579.857 68.768 579.713 68.624C579.569 68.48 579.497 68.312 579.497 68.12C579.497 68.024 579.509 67.928 579.533 67.832C579.557 67.736 579.605 67.616 579.677 67.472L582.449 60.884L575.573 44.648C575.453 44.36 575.393 44.156 575.393 44.036C575.393 43.82 575.465 43.64 575.609 43.496C575.753 43.352 575.933 43.28 576.149 43.28H577.913C578.153 43.28 578.345 43.34 578.489 43.46C578.633 43.58 578.729 43.724 578.777 43.892L584.249 56.996L589.865 43.892C589.937 43.724 590.033 43.58 590.153 43.46C590.297 43.34 590.501 43.28 590.765 43.28H592.457C592.673 43.28 592.853 43.352 592.997 43.496C593.141 43.64 593.213 43.808 593.213 44C593.213 44.12 593.153 44.336 593.033 44.648L582.809 68.228C582.737 68.396 582.629 68.54 582.485 68.66C582.365 68.78 582.173 68.84 581.909 68.84H580.217Z" fill="black"/>
</svg>
